<svg xmlns="http://www.w3.org/2000/svg" viewBox="0 0 1600 1067" width="1600" height="1067">
<defs><radialGradient id="g" cx="50%" cy="48%" r="55%">
<stop offset="0" stop-color="#F7D87F" stop-opacity=".22"/><stop offset="1" stop-color="#2B0A0A" stop-opacity="0"/></radialGradient></defs>
<rect width="1600" height="1067" fill="#2B0A0A"/><rect width="1600" height="1067" fill="url(#g)"/>
<ellipse cx="800" cy="790" rx="430" ry="60" fill="#000" opacity=".35"/>
<polygon points="390.0,560 800,765.0 800,829.0 390.0,624" fill="#3A0C0C"/><polygon points="800,765.0 1210.0,560 1210.0,624 800,829.0" fill="#300A0A"/><polygon points="800,355.0 1210.0,560 800,765.0 390.0,560" fill="#5A1414"/><polygon points="987.5,513.6 1037,538.35 1037,607.65 987.5,582.9" fill="#7E1010"/><polygon points="1037,538.35 1086.5,513.6 1086.5,582.9 1037,607.65" fill="#6A0E0E"/><polygon points="1037,488.85 1086.5,513.6 1037,538.35 987.5,513.6" fill="#BE1A1A"/><polygon points="662.0,487.2 716,514.2 716,589.8000000000001 662.0,562.8" fill="#7E1010"/><polygon points="716,514.2 770.0,487.2 770.0,562.8 716,589.8000000000001" fill="#6A0E0E"/><polygon points="716,460.2 770.0,487.2 716,514.2 662.0,487.2" fill="#BE1A1A"/><polygon points="816.5,460.8 875,490.05 875,571.95 816.5,542.7" fill="#7E1010"/><polygon points="875,490.05 933.5,460.8 933.5,542.7 875,571.95" fill="#6A0E0E"/><polygon points="875,431.55 933.5,460.8 875,490.05 816.5,460.8" fill="#BE1A1A"/><polygon points="971.0,434.4 1034,465.9 1034,554.0999999999999 971.0,522.5999999999999" fill="#7E1010"/><polygon points="1034,465.9 1097.0,434.4 1097.0,522.5999999999999 1034,554.0999999999999" fill="#6A0E0E"/><polygon points="1034,402.9 1097.0,434.4 1034,465.9 971.0,434.4" fill="#BE1A1A"/><polygon points="645.5,518.0 713,551.75 713,646.25 645.5,612.5" fill="#7E1010"/><polygon points="713,551.75 780.5,518.0 780.5,612.5 713,646.25" fill="#6A0E0E"/><polygon points="713,484.25 780.5,518.0 713,551.75 645.5,518.0" fill="#BE1A1A"/><circle cx="480" cy="360" r="34" fill="#F7D87F" opacity=".18"/><circle cx="480" cy="360" r="14" fill="#F7D87F"/><circle cx="586" cy="394" r="34" fill="#F7D87F" opacity=".18"/><circle cx="586" cy="394" r="14" fill="#F7D87F"/><circle cx="692" cy="360" r="34" fill="#F7D87F" opacity=".18"/><circle cx="692" cy="360" r="14" fill="#F7D87F"/><circle cx="798" cy="394" r="34" fill="#F7D87F" opacity=".18"/><circle cx="798" cy="394" r="14" fill="#F7D87F"/><circle cx="904" cy="360" r="34" fill="#F7D87F" opacity=".18"/><circle cx="904" cy="360" r="14" fill="#F7D87F"/><circle cx="1010" cy="394" r="34" fill="#F7D87F" opacity=".18"/><circle cx="1010" cy="394" r="14" fill="#F7D87F"/><circle cx="1116" cy="360" r="34" fill="#F7D87F" opacity=".18"/><circle cx="1116" cy="360" r="14" fill="#F7D87F"/>
<text x="800" y="930" text-anchor="middle" font-family="Georgia,serif" font-size="44" fill="#F7D87F" letter-spacing="6">01 · EL BARRIO</text>
<text x="800" y="975" text-anchor="middle" font-family="Arial,sans-serif" font-size="20" fill="#F8EBAB" opacity=".55" letter-spacing="3">ESCENA PROVISIONAL — RENDER PENDIENTE</text>
</svg>