<svg xmlns="http://www.w3.org/2000/svg" viewBox="0 0 1600 1067" width="1600" height="1067">
<defs><radialGradient id="g" cx="50%" cy="48%" r="55%">
<stop offset="0" stop-color="#E9B949" stop-opacity=".22"/><stop offset="1" stop-color="#2B0A0A" stop-opacity="0"/></radialGradient></defs>
<rect width="1600" height="1067" fill="#2B0A0A"/><rect width="1600" height="1067" fill="url(#g)"/>
<ellipse cx="800" cy="790" rx="430" ry="60" fill="#000" opacity=".35"/>
<polygon points="390.0,560 800,765.0 800,829.0 390.0,624" fill="#3A0C0C"/><polygon points="800,765.0 1210.0,560 1210.0,624 800,829.0" fill="#300A0A"/><polygon points="800,355.0 1210.0,560 800,765.0 390.0,560" fill="#5A1414"/><polygon points="772.5,484.4 833,514.65 833,599.3499999999999 772.5,569.0999999999999" fill="#7E1010"/><polygon points="833,514.65 893.5,484.4 893.5,569.0999999999999 833,599.3499999999999" fill="#6A0E0E"/><polygon points="833,454.15 893.5,484.4 833,514.65 772.5,484.4" fill="#BE1A1A"/><polygon points="528.0,426.8 604,464.8 604,571.2 528.0,533.2" fill="#7E1010"/><polygon points="604,464.8 680.0,426.8 680.0,533.2 604,571.2" fill="#6A0E0E"/><polygon points="604,388.8 680.0,426.8 604,464.8 528.0,426.8" fill="#BE1A1A"/><polygon points="798.5,521.2 855,549.45 855,628.5500000000001 798.5,600.3000000000001" fill="#7E1010"/><polygon points="855,549.45 911.5,521.2 911.5,600.3000000000001 855,628.5500000000001" fill="#6A0E0E"/><polygon points="855,492.95000000000005 911.5,521.2 855,549.45 798.5,521.2" fill="#BE1A1A"/><polygon points="554.0,463.6 626,499.6 626,600.4 554.0,564.4" fill="#7E1010"/><polygon points="626,499.6 698.0,463.6 698.0,564.4 626,600.4" fill="#6A0E0E"/><polygon points="626,427.6 698.0,463.6 626,499.6 554.0,463.6" fill="#BE1A1A"/><polygon points="824.5,448.0 877,474.25 877,547.75 824.5,521.5" fill="#7E1010"/><polygon points="877,474.25 929.5,448.0 929.5,521.5 877,547.75" fill="#6A0E0E"/><polygon points="877,421.75 929.5,448.0 877,474.25 824.5,448.0" fill="#BE1A1A"/><circle cx="480" cy="360" r="34" fill="#E9B949" opacity=".18"/><circle cx="480" cy="360" r="14" fill="#E9B949"/><circle cx="586" cy="394" r="34" fill="#E9B949" opacity=".18"/><circle cx="586" cy="394" r="14" fill="#E9B949"/><circle cx="692" cy="360" r="34" fill="#E9B949" opacity=".18"/><circle cx="692" cy="360" r="14" fill="#E9B949"/><circle cx="798" cy="394" r="34" fill="#E9B949" opacity=".18"/><circle cx="798" cy="394" r="14" fill="#E9B949"/><circle cx="904" cy="360" r="34" fill="#E9B949" opacity=".18"/><circle cx="904" cy="360" r="14" fill="#E9B949"/><circle cx="1010" cy="394" r="34" fill="#E9B949" opacity=".18"/><circle cx="1010" cy="394" r="14" fill="#E9B949"/><circle cx="1116" cy="360" r="34" fill="#E9B949" opacity=".18"/><circle cx="1116" cy="360" r="14" fill="#E9B949"/>
<text x="800" y="930" text-anchor="middle" font-family="Georgia,serif" font-size="44" fill="#E9B949" letter-spacing="6">02 · EL MERCADO</text>
<text x="800" y="975" text-anchor="middle" font-family="Arial,sans-serif" font-size="20" fill="#F8EBAB" opacity=".55" letter-spacing="3">ESCENA PROVISIONAL — RENDER PENDIENTE</text>
</svg>