<svg xmlns="http://www.w3.org/2000/svg" viewBox="0 0 1600 1067" width="1600" height="1067">
<defs><radialGradient id="g" cx="50%" cy="48%" r="55%">
<stop offset="0" stop-color="#FF7A3D" stop-opacity=".22"/><stop offset="1" stop-color="#2B0A0A" stop-opacity="0"/></radialGradient></defs>
<rect width="1600" height="1067" fill="#2B0A0A"/><rect width="1600" height="1067" fill="url(#g)"/>
<ellipse cx="800" cy="790" rx="430" ry="60" fill="#000" opacity=".35"/>
<polygon points="390.0,560 800,765.0 800,829.0 390.0,624" fill="#3A0C0C"/><polygon points="800,765.0 1210.0,560 1210.0,624 800,829.0" fill="#300A0A"/><polygon points="800,355.0 1210.0,560 800,765.0 390.0,560" fill="#5A1414"/><polygon points="537.5,460.8 611,497.55 611,600.45 537.5,563.7" fill="#7E1010"/><polygon points="611,497.55 684.5,460.8 684.5,563.7 611,600.45" fill="#6A0E0E"/><polygon points="611,424.05 684.5,460.8 611,497.55 537.5,460.8" fill="#BE1A1A"/><polygon points="881.0,475.6 948,509.1 948,602.9 881.0,569.4" fill="#7E1010"/><polygon points="948,509.1 1015.0,475.6 1015.0,569.4 948,602.9" fill="#6A0E0E"/><polygon points="948,442.1 1015.0,475.6 948,509.1 881.0,475.6" fill="#BE1A1A"/><polygon points="744.5,490.4 805,520.65 805,605.3499999999999 744.5,575.0999999999999" fill="#7E1010"/><polygon points="805,520.65 865.5,490.4 865.5,575.0999999999999 805,605.3499999999999" fill="#6A0E0E"/><polygon points="805,460.15 865.5,490.4 805,520.65 744.5,490.4" fill="#BE1A1A"/><polygon points="608.0,505.2 662,532.2 662,607.8000000000001 608.0,580.8" fill="#7E1010"/><polygon points="662,532.2 716.0,505.2 716.0,580.8 662,607.8000000000001" fill="#6A0E0E"/><polygon points="662,478.2 716.0,505.2 662,532.2 608.0,505.2" fill="#BE1A1A"/><polygon points="951.5,520.0 999,543.75 999,610.25 951.5,586.5" fill="#7E1010"/><polygon points="999,543.75 1046.5,520.0 1046.5,586.5 999,610.25" fill="#6A0E0E"/><polygon points="999,496.25 1046.5,520.0 999,543.75 951.5,520.0" fill="#BE1A1A"/><circle cx="480" cy="360" r="34" fill="#FF7A3D" opacity=".18"/><circle cx="480" cy="360" r="14" fill="#FF7A3D"/><circle cx="586" cy="394" r="34" fill="#FF7A3D" opacity=".18"/><circle cx="586" cy="394" r="14" fill="#FF7A3D"/><circle cx="692" cy="360" r="34" fill="#FF7A3D" opacity=".18"/><circle cx="692" cy="360" r="14" fill="#FF7A3D"/><circle cx="798" cy="394" r="34" fill="#FF7A3D" opacity=".18"/><circle cx="798" cy="394" r="14" fill="#FF7A3D"/><circle cx="904" cy="360" r="34" fill="#FF7A3D" opacity=".18"/><circle cx="904" cy="360" r="14" fill="#FF7A3D"/><circle cx="1010" cy="394" r="34" fill="#FF7A3D" opacity=".18"/><circle cx="1010" cy="394" r="14" fill="#FF7A3D"/><circle cx="1116" cy="360" r="34" fill="#FF7A3D" opacity=".18"/><circle cx="1116" cy="360" r="14" fill="#FF7A3D"/>
<text x="800" y="930" text-anchor="middle" font-family="Georgia,serif" font-size="44" fill="#FF7A3D" letter-spacing="6">03 · EL WOK</text>
<text x="800" y="975" text-anchor="middle" font-family="Arial,sans-serif" font-size="20" fill="#F8EBAB" opacity=".55" letter-spacing="3">ESCENA PROVISIONAL — RENDER PENDIENTE</text>
</svg>